<?xml version="1.0" standalone="no"?>
<!DOCTYPE svg PUBLIC "-//W3C//DTD SVG 20010904//EN"
 "http://www.w3.org/TR/2001/REC-SVG-20010904/DTD/svg10.dtd">
<svg version="1.0" xmlns="http://www.w3.org/2000/svg"
 width="512.000000pt" height="512.000000pt" viewBox="0 0 512.000000 512.000000"
 preserveAspectRatio="xMidYMid meet">
<metadata>
Created by potrace 1.14, written by Peter Selinger 2001-2017
</metadata>
<g transform="translate(0.000000,512.000000) scale(0.100000,-0.100000)"
fill="#000000" stroke="none">
<path d="M1384 5105 c-169 -53 -304 -219 -330 -403 -2 -21 -7 -2861 -4 -3232
0 -63 2 -72 14 -60 7 8 65 91 127 184 l114 170 5 -245 c5 -223 8 -248 27 -289
28 -58 41 -73 83 -99 23 -13 52 -21 83 -21 26 0 47 -2 47 -4 0 -2 -36 -57 -80
-122 -45 -65 -77 -121 -72 -126 4 -4 27 -9 50 -11 23 -1 42 -4 42 -7 0 -3 -11
-22 -26 -43 l-25 -38 -30 18 c-44 26 -52 38 -40 61 9 17 3 23 -52 50 -150 75
-249 230 -265 416 l-7 79 -57 -84 c-31 -46 -93 -138 -138 -204 -46 -66 -148
-217 -229 -335 l-146 -215 1 -76 c1 -95 26 -167 77 -225 39 -45 219 -174 297
-214 58 -30 169 -33 252 -7 66 20 102 53 174 158 28 41 109 159 180 263 71
103 134 196 139 205 51 82 130 191 139 192 6 0 583 2 1281 3 l1270 2 58 23
c138 54 251 193 294 358 4 15 8 793 9 1728 3 1877 7 1774 -60 1910 -39 79
-114 161 -183 200 -104 58 -21 55 -1562 54 -1119 -1 -1425 -4 -1457 -14z
m2903 -281 c48 -39 75 -85 88 -150 15 -76 12 -3355 -3 -3410 -7 -22 -25 -59
-42 -82 -57 -79 46 -73 -1255 -73 l-1165 0 -16 -22 c-44 -62 -154 -223 -157
-232 -2 -5 -56 -10 -121 -11 l-117 -2 23 36 c12 20 43 66 68 102 53 76 80 118
80 124 0 2 -23 4 -51 4 -28 1 -53 3 -55 5 -2 2 100 156 228 343 127 186 289
424 359 528 71 103 139 202 152 219 l23 30 41 -27 42 -28 -71 -101 c-84 -123
-449 -657 -570 -834 -47 -71 -85 -130 -83 -131 2 -2 52 -4 110 -4 78 0 110 3
120 13 7 8 57 79 110 159 54 80 122 179 150 220 266 387 526 772 534 792 5 13
25 93 45 178 20 85 65 279 101 430 68 286 73 313 61 368 -7 30 -44 60 -71 57
-57 -7 -112 -40 -374 -224 -9 -6 -121 -84 -249 -173 l-233 -161 -221 -326
c-122 -179 -240 -353 -263 -386 -23 -33 -72 -105 -110 -160 -37 -55 -72 -104
-77 -110 -5 -6 -8 570 -6 1445 l3 1455 21 46 c26 56 76 106 117 117 16 4 651
7 1412 7 l1383 0 39 -31z m-1560 -1766 c-3 -13 -40 -172 -83 -355 -76 -326
-78 -332 -99 -320 -61 35 -413 282 -410 287 3 4 35 28 72 54 38 25 167 115
288 200 121 85 224 155 229 155 4 1 6 -9 3 -21z m-1589 -2289 c114 -78 213
-147 219 -153 12 -11 -16 -57 -143 -240 -13 -19 -14 -19 -35 8 -37 47 -70 74
-200 161 -69 47 -149 93 -177 103 l-51 18 82 122 c45 67 86 122 90 122 5 0
102 -64 215 -141z"/>
<path d="M1727 4442 c-15 -3 -17 -20 -17 -138 l0 -134 110 -1 c61 0 139 0 175
0 36 0 78 0 93 0 l28 1 -1 135 c0 82 -4 135 -10 136 -27 3 -364 4 -378 1z"/>
<path d="M2355 4440 c-7 -12 -5 -270 2 -271 38 -3 1625 -1 1628 2 3 4 8 181 6
244 l-1 30 -816 0 c-449 0 -817 -2 -819 -5z"/>
<path d="M1710 3778 l0 -138 63 -1 c399 -3 2210 1 2214 5 3 3 6 64 7 136 1
109 -1 130 -14 131 -8 1 -522 2 -1143 3 l-1127 1 0 -137z"/>
<path d="M1710 3248 l0 -138 203 0 203 0 -2 133 c-1 72 -2 134 -3 138 0 3 -91
5 -201 5 l-200 0 0 -138z"/>
<path d="M3138 3380 c0 -3 -2 -65 -2 -137 l-2 -133 428 0 c335 0 428 3 429 13
1 15 1 226 0 248 -1 13 -48 15 -426 15 -234 0 -426 -3 -427 -6z"/>
<path d="M3137 2852 c-2 -4 -3 -65 -3 -137 l1 -130 428 -2 427 -3 1 38 c1 40
1 183 0 220 l-1 22 -425 0 c-233 0 -426 -4 -428 -8z"/>
<path d="M2989 2323 c-1 -8 0 -237 1 -259 0 -12 987 -16 995 -5 3 6 8 224 6
259 -1 9 -108 12 -501 12 -275 0 -500 -3 -501 -7z"/>
<path d="M2702 1663 l3 -138 643 0 642 0 0 25 c1 14 2 76 3 138 l2 112 -648 0
-648 0 3 -137z"/>
</g>
</svg>
